# xmcd CD database file
# Copyright (C) 1993-1999 CDDB, Inc.
#
# Track frame offsets:
#	150
#	12839
#	22124
#	31015
#	42818
#	51677
#	61273
#	75166
#	85224
#	94313
#	103638
#	110674
#	123663
#	130824
#	143105
#	151389
#	161716
#	173235
#	183466
#	194473
#	205919
#	217056
#	228699
#	238703
#
# Disc length: 3354
#
# Revision: 1
# Processed by: cddbd v1.4PL0 Copyright (c) Steve Scherf et al.
# Submitted via: CoolCD_Studio 1.3
#
DISCID=550d1818
DTITLE=Les Paul and Mary Ford - 24 greatest hits
DYEAR=1900
DGENRE=
TTITLE0=Vaya con dios
TTITLE1=How high the moon
TTITLE2=Johnny is the boy for me
TTITLE3=Walkin' and whistlin' blues
TTITLE4=Whispering
TTITLE5=Mr. Sandman
TTITLE6=Tennesee waltz
TTITLE7=I'm sitting on the top of the world
TTITLE8=Bye bye blues
TTITLE9=Tiger rag
TTITLE10=The jazz me blues
TTITLE11=I'm forever blowing bubbles
TTITLE12=Tico-tico
TTITLE13=Lover
TTITLE14=Lady of spain
TTITLE15=12th street rag
TTITLE16=St.Louis blues
TTITLE17=Mockin' bird hill
TTITLE18=The best things in life are free
TTITLE19=Nola
TTITLE20=Carioca
TTITLE21=Goofus
TTITLE22=Jealous
TTITLE23=I'm a fool to care
EXTD=
EXTT0=
EXTT1=
EXTT2=
EXTT3=
EXTT4=
EXTT5=
EXTT6=
EXTT7=
EXTT8=
EXTT9=
EXTT10=
EXTT11=
EXTT12=
EXTT13=
EXTT14=
EXTT15=
EXTT16=
EXTT17=
EXTT18=
EXTT19=
EXTT20=
EXTT21=
EXTT22=
EXTT23=
PLAYORDER=
